<svg xmlns="http://www.w3.org/2000/svg" width="256" height="256" viewBox="0 0 256 256" role="img" aria-label="NanitesLab dashboard QR placeholder">
  <rect width="256" height="256" rx="16" fill="#ffffff"/>
  <rect x="14" y="14" width="64" height="64" rx="8" fill="#14212b"/>
  <rect x="30" y="30" width="32" height="32" rx="4" fill="#ffffff"/>
  <rect x="178" y="14" width="64" height="64" rx="8" fill="#14212b"/>
  <rect x="194" y="30" width="32" height="32" rx="4" fill="#ffffff"/>
  <rect x="14" y="178" width="64" height="64" rx="8" fill="#14212b"/>
  <rect x="30" y="194" width="32" height="32" rx="4" fill="#ffffff"/>
  <g fill="#0f6f7a">
    <rect x="104" y="24" width="16" height="16"/>
    <rect x="132" y="24" width="28" height="16"/>
    <rect x="96" y="56" width="20" height="20"/>
    <rect x="136" y="58" width="18" height="18"/>
    <rect x="170" y="96" width="18" height="18"/>
    <rect x="206" y="96" width="22" height="22"/>
    <rect x="96" y="104" width="22" height="22"/>
    <rect x="132" y="104" width="18" height="18"/>
    <rect x="26" y="100" width="18" height="18"/>
    <rect x="58" y="102" width="22" height="22"/>
    <rect x="100" y="144" width="16" height="16"/>
    <rect x="130" y="142" width="30" height="18"/>
    <rect x="178" y="144" width="16" height="16"/>
    <rect x="212" y="142" width="20" height="20"/>
    <rect x="98" y="184" width="24" height="24"/>
    <rect x="138" y="184" width="16" height="16"/>
    <rect x="170" y="178" width="24" height="24"/>
    <rect x="212" y="186" width="18" height="18"/>
    <rect x="104" y="224" width="18" height="18"/>
    <rect x="142" y="220" width="22" height="22"/>
    <rect x="184" y="224" width="44" height="16"/>
  </g>
  <text x="128" y="132" font-family="Arial, sans-serif" font-size="16" font-weight="700" text-anchor="middle" fill="#14212b">Open dashboard</text>
</svg>
